<svg width="385" height="385" viewBox="0 0 385 385" fill="none" xmlns="http://www.w3.org/2000/svg">
<path d="M192.492 17.501V52.501M68.7608 68.776L93.437 93.451M332.499 192.501H367.501M316.223 68.776L291.547 93.451M261.568 203.876C263.722 190.83 262.136 177.44 256.995 165.258C251.854 153.075 243.367 142.598 232.517 135.039C221.667 127.481 208.898 123.149 195.688 122.547C182.478 121.945 169.368 125.096 157.875 131.636M209.993 367.501H104.988C88.4313 367.498 72.2156 362.797 58.2239 353.947C44.2322 345.096 33.0388 332.457 25.9436 317.499C18.8484 302.541 16.1426 285.877 18.1405 269.442C20.1384 253.008 26.758 237.477 37.2305 224.654C47.7029 211.831 61.5985 202.243 77.3033 197.001C93.0081 191.76 109.878 191.082 125.953 195.045C142.028 199.008 156.648 207.45 168.117 219.391C179.585 231.331 187.431 246.28 190.742 262.501H209.993C223.918 262.501 237.272 268.032 247.118 277.878C256.964 287.723 262.496 301.077 262.496 315.001C262.496 328.925 256.964 342.278 247.118 352.124C237.272 361.97 223.918 367.501 209.993 367.501Z" stroke="#113264" stroke-width="35.0018" stroke-linecap="round" stroke-linejoin="round"/>
</svg>
