<svg xmlns="http://www.w3.org/2000/svg" width="550" height="550" fill="none" viewBox="0 0 550 550"><path stroke="#113264" stroke-linecap="round" stroke-linejoin="round" stroke-width="50.002" d="M274.989 25.001v50m-176.76 23.25 35.252 35.25m341.518 141.5h50.002m-73.253-176.75-35.252 35.25m-42.827 157.75a100 100 0 0 0-41.502-98.338 100.01 100.01 0 0 0-106.631-4.862m74.454 336.95H149.982a125.01 125.01 0 0 1-112.92-71.431 125 125 0 0 1 16.124-132.636 125.01 125.01 0 0 1 126.746-42.298 125 125 0 0 1 92.556 96.365h27.502a75 75 0 0 1 75.004 75 75 75 0 0 1-75.004 75"/></svg>